# xmcd
#
# Track frame offsets:
# 180
# 19947
# 41865
# 63374
# 87882
# 112034
# 131118
# 172513
# 188275
# 213974
# 242853
# 260385
# 273338
# 275850
# 287391
#
# Disc length: 4421 seconds
#
#
# Revision: 2
# Processed by: cddbd v1.5.2PL0 Copyright (c) Steve Scherf et al.
# Submitted via: FreeRIP 2.944 
#
DISCID=d511430f
DTITLE=Billy Thorpe and The Aztecs - More Arse Than Class
DYEAR=1973
DGENRE=Rock
TTITLE0=Boogie Woogie
TTITLE1=Walkin Down The Street
TTITLE2=Don't You Know
TTITLE3=No More War
TTITLE4=I Wanna Know
TTITLE5=Back On The Road Again
TTITLE6=Slowly Learnin How
TTITLE7=A Little Bit Of Lunacy Maestro Please (Live)
TTITLE8=I Wanna Know (Live)
TTITLE9=Pig's Blues (Live)
TTITLE10=Mame
TTITLE11=Movie Queen
TTITLE12=Kawasaki (ad)
TTITLE13=Kawasaki (ad 2)
TTITLE14=Slowly Learning How
EXTD=
EXTT0=
EXTT1=
EXTT2=
EXTT3=
EXTT4=
EXTT5=
EXTT6=
EXTT7=
EXTT8=
EXTT9=
EXTT10=
EXTT11=
EXTT12=
EXTT13=
EXTT14=
PLAYORDER=
